<?xml version="1.0"?>
<svg width="1280" height="1280" xmlns="http://www.w3.org/2000/svg" xmlns:svg="http://www.w3.org/2000/svg" preserveAspectRatio="xMidYMid meet">
 <metadata>Created by potrace 1.15, written by Peter Selinger 2001-2017</metadata>
 <g class="layer">
  <title>Layer 1</title>
  <g fill="#000000" id="svg_1" transform="translate(0 1280) scale(0.1 -0.1)">
   <path d="m4969,10256c-646,-572 -1825,-1616 -2620,-2320c-794,-703 -1445,-1282 -1447,-1286c-3,-8 537,-620 548,-620c4,0 407,354 896,788c489,433 1515,1341 2278,2017c764,677 1426,1263 1472,1302l82,73l2358,-2090c1298,-1149 2364,-2089 2369,-2089c6,0 131,138 279,306c196,223 267,309 260,319c-5,7 -1185,1054 -2621,2327c-2305,2040 -2617,2313 -2645,2314c-30,1 -146,-100 -1209,-1041z" fill="#ff0000" id="svg_2"/>
   <path d="m2470,9648l0,-992l33,30c31,30 1280,1156 1284,1158c0,1 5,180 9,399l7,397l-667,0l-666,0l0,-992z" fill="#ff0000" id="svg_3"/>
   <path d="m5744,9127c-236,-210 -1070,-949 -1852,-1641l-1422,-1259l0,-2371c0,-2275 1,-2373 19,-2411c23,-51 74,-101 120,-117c28,-10 286,-13 1216,-13l1180,0l5,1065c5,985 6,1067 22,1097c23,42 80,88 127,102c28,8 315,11 1027,11c939,0 991,-1 1030,-19c57,-26 110,-92 123,-153c7,-33 11,-392 11,-1078l0,-1030l1163,0c1261,0 1218,-2 1291,54c19,14 43,45 55,69l21,43l1,2375l1,2374l-314,280c-289,258 -3344,2963 -3378,2991c-13,10 -83,-48 -446,-369z" fill="#ff0000" id="svg_4"/>
  </g>
 </g>
</svg>